<svg width="74" height="75" viewBox="0 0 74 75" fill="none" xmlns="http://www.w3.org/2000/svg">
<path d="M37 33.4803L42.2083 45.7512C42.2083 47.1509 41.6596 48.4933 40.6828 49.4831C39.7061 50.4729 38.3813 51.0289 37 51.0289C35.6186 51.0289 34.2939 50.4729 33.3171 49.4831C32.3404 48.4933 31.7916 47.1509 31.7916 45.7512L37 33.4803ZM70.8541 0.388672H3.14579C2.45512 0.388672 1.79274 0.666697 1.30437 1.16158C0.815993 1.65647 0.541626 2.32768 0.541626 3.02756V10.9442C0.541626 11.6441 0.815993 12.3153 1.30437 12.8102C1.79274 13.3051 2.45512 13.5831 3.14579 13.5831H70.8541C71.5448 13.5831 72.2072 13.3051 72.6955 12.8102C73.1839 12.3153 73.4583 11.6441 73.4583 10.9442V3.02756C73.4583 2.32768 73.1839 1.65647 72.6955 1.16158C72.2072 0.666697 71.5448 0.388672 70.8541 0.388672ZM68.25 55.8053V16.222H37C43.216 16.222 49.1774 18.7242 53.5728 23.1782C57.9682 27.6322 60.4375 33.6731 60.4375 39.972V55.8053H68.25ZM37 21.4998C32.1653 21.4998 27.5286 23.446 24.11 26.9102C20.6914 30.3744 18.7708 35.0729 18.7708 39.972V55.8053H37C34.2373 55.8053 31.5878 54.6932 29.6343 52.7137C27.6808 50.7341 26.5833 48.0493 26.5833 45.2498C26.5872 44.8878 26.6578 44.5298 26.7916 44.1942L34.6041 25.722C34.8042 25.246 35.138 24.8401 35.564 24.5548C35.99 24.2695 36.4893 24.1173 37 24.1173C37.5106 24.1173 38.0099 24.2695 38.4359 24.5548C38.8619 24.8401 39.1957 25.246 39.3958 25.722L47.2083 44.1942C47.3421 44.5298 47.4127 44.8878 47.4166 45.2498C47.4166 48.0493 46.3192 50.7341 44.3657 52.7137C42.4121 54.6932 39.7626 55.8053 37 55.8053H55.2291V39.972C55.2291 35.0729 53.3086 30.3744 49.8899 26.9102C46.4713 23.446 41.8346 21.4998 37 21.4998ZM5.74996 55.8053H13.5625V39.972C13.5625 33.6731 16.0318 27.6322 20.4271 23.1782C24.8225 18.7242 30.7839 16.222 37 16.222H5.74996V55.8053ZM70.8541 58.4442H3.14579C2.45512 58.4442 1.79274 58.7222 1.30437 59.2171C0.815993 59.712 0.541626 60.3832 0.541626 61.0831V71.6387C0.541626 72.3385 0.815993 73.0098 1.30437 73.5046C1.79274 73.9995 2.45512 74.2775 3.14579 74.2775H70.8541C71.5448 74.2775 72.2072 73.9995 72.6955 73.5046C73.1839 73.0098 73.4583 72.3385 73.4583 71.6387V61.0831C73.4583 60.3832 73.1839 59.712 72.6955 59.2171C72.2072 58.7222 71.5448 58.4442 70.8541 58.4442Z" fill="url(#paint0_linear_1_1070)"/>
<defs>
<linearGradient id="paint0_linear_1_1070" x1="37" y1="0.388672" x2="37" y2="74.2775" gradientUnits="userSpaceOnUse">
<stop stop-color="#FF002E"/>
<stop offset="1" stop-color="#FF3E3E"/>
</linearGradient>
</defs>
</svg>
