<svg width="18" height="18" viewBox="0 0 18 18" fill="none" xmlns="http://www.w3.org/2000/svg">
<path fill-rule="evenodd" clip-rule="evenodd" d="M17.5333 8.98806C17.5333 9.56515 17.4746 10.1414 17.3592 10.7032C17.2467 11.2516 17.08 11.79 16.8616 12.3047C16.6483 12.8103 16.3837 13.2975 16.0745 13.7518C15.77 14.2033 15.4191 14.6269 15.0336 15.013C14.6474 15.3975 14.2224 15.7474 13.7711 16.0532C13.3152 16.3603 12.8273 16.6245 12.3214 16.8388C11.806 17.056 11.2664 17.2224 10.7184 17.3348C10.1559 17.4505 9.57754 17.5095 8.99961 17.5095C8.42125 17.5095 7.84289 17.4505 7.2812 17.3348C6.73243 17.2224 6.19281 17.056 5.67778 16.8388C5.17193 16.6245 4.68355 16.3603 4.2277 16.0532C3.77643 15.7474 3.35141 15.3975 2.96597 15.013C2.58013 14.6269 2.22926 14.2033 1.92425 13.7518C1.61673 13.2975 1.3517 12.8102 1.13754 12.3047C0.919167 11.79 0.752099 11.2516 0.639172 10.7032C0.52501 10.1414 0.46666 9.56515 0.46666 8.98806C0.46666 8.41053 0.524977 7.833 0.639206 7.27249C0.752132 6.72408 0.919201 6.18484 1.13757 5.67099C1.35173 5.16503 1.61677 4.67739 1.92428 4.223C2.2293 3.77115 2.58017 3.34838 2.96601 2.96183C3.35145 2.57734 3.77647 2.22828 4.22774 1.92287C4.68359 1.61453 5.17196 1.35035 5.67781 1.13563C6.19285 0.917974 6.73243 0.751146 7.28123 0.63965C7.84292 0.524819 8.42128 0.466553 8.99964 0.466553C9.57757 0.466553 10.1559 0.524819 10.7185 0.63965C11.2664 0.75118 11.806 0.918007 12.3215 1.13563C12.8273 1.35032 13.3153 1.61453 13.7711 1.92287C14.2224 2.22828 14.6474 2.57734 15.0337 2.96183C15.4191 3.34838 15.77 3.77115 16.0746 4.223C16.3837 4.67739 16.6483 5.16507 16.8616 5.67099C17.08 6.18484 17.2467 6.72408 17.3592 7.27249C17.4746 7.833 17.5333 8.41053 17.5333 8.98806ZM5.89024 2.40593C3.85804 3.36421 2.34129 5.23409 1.86834 7.48763C2.06046 7.4893 5.09729 7.52759 8.59621 6.59926C7.33491 4.36153 5.98734 2.53537 5.89024 2.40593ZM9.19998 7.71983C5.44772 8.84157 1.8471 8.76085 1.71794 8.75588C1.71583 8.83409 1.71209 8.9098 1.71209 8.98805C1.71209 10.8575 2.41838 12.5618 3.57927 13.8505C3.57677 13.8467 5.57107 10.3137 9.50376 9.04381C9.59875 9.01219 9.69544 8.98388 9.79127 8.95643C9.60837 8.54286 9.40873 8.12843 9.19998 7.71983ZM13.8123 3.52647C12.5293 2.39677 10.8447 1.71152 8.99958 1.71152C8.40746 1.71152 7.83284 1.78309 7.28241 1.9154C7.39156 2.06188 8.7604 3.87517 10.0067 6.16029C12.7565 5.13091 13.7944 3.55309 13.8123 3.52647ZM10.288 10.1622C10.2718 10.1676 10.2556 10.1723 10.2397 10.1781C5.93995 11.6748 4.53581 14.6913 4.52062 14.7242C5.7578 15.685 7.30954 16.2646 8.99963 16.2646C10.0088 16.2646 10.9701 16.0594 11.8447 15.6879C11.7368 15.0521 11.3135 12.8235 10.288 10.1622ZM13.0719 15.023C14.7082 13.9204 15.8703 12.1695 16.1945 10.1414C16.0445 10.0931 14.0057 9.44861 11.6534 9.82519C12.6093 12.4482 12.9977 14.5844 13.0719 15.023ZM10.5676 7.24463C10.7368 7.59166 10.9006 7.94486 11.0518 8.29983C11.1056 8.42716 11.1581 8.552 11.2093 8.6768C13.7128 8.36223 16.1791 8.89149 16.2846 8.9131C16.2679 7.18803 15.65 5.60481 14.6274 4.36531C14.6137 4.38482 13.4449 6.07124 10.5676 7.24463Z" fill="white"/>
</svg>
