<svg width="18" height="18" viewBox="0 0 18 18" fill="none" xmlns="http://www.w3.org/2000/svg">
<path fill-rule="evenodd" clip-rule="evenodd" d="M9.00079 0.466553C6.68326 0.466553 6.39241 0.476686 5.48218 0.518109C4.57372 0.559709 3.95363 0.703533 3.41105 0.914557C2.8498 1.13252 2.3737 1.42407 1.89939 1.89857C1.42471 2.37288 1.13316 2.84898 0.914486 3.41005C0.702929 3.95281 0.558927 4.57308 0.518038 5.48118C0.477326 6.39141 0.46666 6.68244 0.46666 8.99997C0.46666 11.3175 0.476971 11.6075 0.518216 12.5177C0.559994 13.4262 0.703818 14.0462 0.914664 14.5888C1.1328 15.1501 1.42436 15.6262 1.89885 16.1005C2.37299 16.5752 2.84908 16.8674 3.40998 17.0854C3.95292 17.2964 4.57319 17.4402 5.48147 17.4818C6.3917 17.5233 6.68237 17.5334 8.99973 17.5334C11.3174 17.5334 11.6074 17.5233 12.5176 17.4818C13.4261 17.4402 14.0469 17.2964 14.5898 17.0854C15.1509 16.8674 15.6263 16.5752 16.1004 16.1005C16.5751 15.6262 16.8667 15.1501 17.0853 14.589C17.2951 14.0462 17.4391 13.426 17.4818 12.5179C17.5227 11.6076 17.5333 11.3175 17.5333 8.99997C17.5333 6.68244 17.5227 6.39159 17.4818 5.48136C17.4391 4.57291 17.2951 3.95281 17.0853 3.41023C16.8667 2.84898 16.5751 2.37288 16.1004 1.89857C15.6258 1.4239 15.1511 1.13234 14.5893 0.914557C14.0453 0.703533 13.4248 0.559709 12.5164 0.518109C11.6062 0.476686 11.3164 0.466553 8.99813 0.466553H9.00079ZM8.23524 2.00432C8.46244 2.00397 8.71595 2.00432 9.00076 2.00432C11.2792 2.00432 11.5492 2.0125 12.449 2.05339C13.281 2.09143 13.7325 2.23046 14.0333 2.34726C14.4316 2.50193 14.7155 2.68682 15.014 2.98549C15.3126 3.28416 15.4975 3.56861 15.6526 3.96683C15.7694 4.26728 15.9086 4.71884 15.9464 5.55085C15.9873 6.45041 15.9962 6.72064 15.9962 8.998C15.9962 11.2754 15.9873 11.5456 15.9464 12.4451C15.9084 13.2772 15.7694 13.7287 15.6526 14.0292C15.4979 14.4274 15.3126 14.7109 15.014 15.0094C14.7153 15.3081 14.4317 15.493 14.0333 15.6477C13.7329 15.765 13.281 15.9037 12.449 15.9417C11.5494 15.9826 11.2792 15.9915 9.00076 15.9915C6.72215 15.9915 6.45211 15.9826 5.55254 15.9417C4.72053 15.9033 4.26897 15.7643 3.96799 15.6475C3.56977 15.4928 3.28532 15.3079 2.98665 15.0093C2.68798 14.7106 2.50309 14.4269 2.34806 14.0284C2.23126 13.728 2.09206 13.2764 2.0542 12.4444C2.01331 11.5449 2.00513 11.2746 2.00513 8.99586C2.00513 6.71708 2.01331 6.44828 2.0542 5.54872C2.09224 4.71671 2.23126 4.26515 2.34806 3.96434C2.50273 3.56612 2.68798 3.28167 2.98665 2.983C3.28532 2.68433 3.56977 2.49944 3.96799 2.34441C4.2688 2.22708 4.72053 2.08841 5.55254 2.05019C6.33975 2.01463 6.64482 2.00397 8.23524 2.00219V2.00432ZM13.5558 3.42123C12.9905 3.42123 12.5318 3.87937 12.5318 4.44488C12.5318 5.01022 12.9905 5.4689 13.5558 5.4689C14.1212 5.4689 14.5798 5.01022 14.5798 4.44488C14.5798 3.87955 14.1212 3.42123 13.5558 3.42123ZM9.00081 4.61768C6.58069 4.61768 4.61854 6.57984 4.61854 8.99995C4.61854 11.4201 6.58069 13.3813 9.00081 13.3813C11.4209 13.3813 13.3824 11.4201 13.3824 8.99995C13.3824 6.57984 11.4209 4.61768 9.00081 4.61768ZM9.00077 6.15548C10.5716 6.15548 11.8452 7.42891 11.8452 8.99995C11.8452 10.5708 10.5716 11.8444 9.00077 11.8444C7.42974 11.8444 6.1563 10.5708 6.1563 8.99995C6.1563 7.42891 7.42974 6.15548 9.00077 6.15548Z" fill="white"/>
</svg>
