<svg width="18" height="13" viewBox="0 0 18 13" fill="none" xmlns="http://www.w3.org/2000/svg">
<path fill-rule="evenodd" clip-rule="evenodd" d="M15.6677 0.49952C16.4021 0.70103 16.9804 1.29478 17.1767 2.04878C17.5333 3.41533 17.5333 6.26663 17.5333 6.26663C17.5333 6.26663 17.5333 9.11784 17.1767 10.4845C16.9804 11.2385 16.4021 11.8322 15.6677 12.0338C14.3369 12.4 9.00001 12.4 9.00001 12.4C9.00001 12.4 3.66309 12.4 2.33218 12.0338C1.59783 11.8322 1.0195 11.2385 0.823232 10.4845C0.466675 9.11784 0.466675 6.26663 0.466675 6.26663C0.466675 6.26663 0.466675 3.41533 0.823232 2.04878C1.0195 1.29478 1.59783 0.70103 2.33218 0.49952C3.66309 0.133301 9.00001 0.133301 9.00001 0.133301C9.00001 0.133301 14.3369 0.133301 15.6677 0.49952ZM7.40002 3.86658V9.19991L11.6667 6.53335L7.40002 3.86658Z" fill="white"/>
</svg>
