<svg width="74" height="56" viewBox="0 0 74 56" fill="none" xmlns="http://www.w3.org/2000/svg">
<path d="M26.558 43.2374C22.3789 38.9514 20.3288 33.695 20.3288 27.63C20.3288 21.484 22.4578 16.2276 26.7157 11.9417" stroke="white" stroke-width="8.36756"/>
<path d="M14.9667 52.8177C8.28015 45.9951 4.99997 37.6278 4.99997 27.9732C4.99997 18.1899 8.40632 9.82259 15.219 3" stroke="white" stroke-width="8.36756"/>
<path d="M38.4183 34.6226C36.9704 34.6226 35.6319 34.2632 34.4027 33.5444C33.184 32.8257 32.2152 31.8569 31.4965 30.6382C30.7777 29.409 30.4183 28.0705 30.4183 26.6226V20.2319L36.809 18.6538V26.6226C36.809 27.0705 36.9652 27.4507 37.2777 27.7632C37.5902 28.0757 37.9704 28.2319 38.4183 28.2319H54.3871C54.8246 28.2319 55.1944 28.0757 55.4965 27.7632C55.809 27.4507 55.9652 27.0705 55.9652 26.6226V20.2319L62.3715 18.6538V26.6226C62.3715 28.0705 62.0121 29.409 61.2933 30.6382C60.5746 31.8569 59.6006 32.8257 58.3715 33.5444C57.1527 34.2632 55.8246 34.6226 54.3871 34.6226H38.4183ZM43.9652 37.7944H48.7777V42.5601H43.9652V37.7944Z" fill="white"/>
</svg>
