<svg width="0" height="0" class="hidden"><symbol xmlns="http://www.w3.org/2000/svg" id="VectorCharger" fill="none" viewBox="0 0 64 99"><g filter="url(#filter0_d_1_1017)"><path fill="url(#paint0_linear_1_1017)" fill-rule="evenodd" d="M21.8351 3.71647C21.6674 2.005 20.1895 0.666504 18.3911 0.666504C16.4803 0.666504 14.9313 2.17754 14.9313 4.0415V13.1464C14.9313 16.1261 12.5158 18.5416 9.53607 18.5416V18.5416L9.21156 18.5569C7.50285 18.7187 6.1665 20.1452 6.1665 21.8809V48.5952L6.17627 49.1692C6.48156 58.1246 13.9034 65.2916 23.0143 65.2916H23.2704C26.308 65.2916 28.7705 67.7541 28.7705 70.7917V70.7917L28.7819 71.3285C29.0611 77.914 34.4542 83.1667 41.0662 83.1667H54.4796L54.8026 83.1512C56.5031 82.9877 57.833 81.546 57.833 79.7917C57.833 77.9277 56.3317 76.4167 54.4796 76.4167H41.0662L40.6835 76.4037C37.7753 76.2058 35.4772 73.7688 35.4772 70.7917V70.7917C35.4772 67.7541 37.9477 65.2916 40.9853 65.2916V65.2916L41.5645 65.282C50.6012 64.9794 57.8332 57.6243 57.8332 48.5952V21.8809L57.8177 21.5593C57.6545 19.866 56.2151 18.5416 54.4636 18.5416V18.5416C51.4839 18.5416 49.0684 16.1261 49.0684 13.1465V4.0415L49.0526 3.71647C48.885 2.005 47.407 0.666504 45.6086 0.666504C43.6978 0.666504 42.1488 2.17754 42.1488 4.0415V8.39268C42.1488 13.9978 37.605 18.5416 31.9999 18.5416V18.5416C26.3948 18.5416 21.8509 13.9978 21.8509 8.39268V4.0415L21.8351 3.71647Z" clip-rule="evenodd"/></g><defs><filter id="filter0_d_1_1017" width="63.667" height="97.5" x=".167" y=".667" color-interpolation-filters="sRGB" filterUnits="userSpaceOnUse"><feFlood flood-opacity="0" result="BackgroundImageFix"/><feColorMatrix in="SourceAlpha" result="hardAlpha" type="matrix" values="0 0 0 0 0 0 0 0 0 0 0 0 0 0 0 0 0 0 127 0"/><feOffset dy="9"/><feGaussianBlur stdDeviation="3"/><feColorMatrix type="matrix" values="0 0 0 0 0 0 0 0 0 0 0 0 0 0 0 0 0 0 0.0693564 0"/><feBlend in2="BackgroundImageFix" mode="normal" result="effect1_dropShadow_1_1017"/><feBlend in="SourceGraphic" in2="effect1_dropShadow_1_1017" mode="normal" result="shape"/></filter><linearGradient id="paint0_linear_1_1017" x1="6.167" x2="6.167" y1=".667" y2="83.167" gradientUnits="userSpaceOnUse"><stop stop-color="#53B9D9"/><stop offset="1" stop-color="#8DD4EA"/></linearGradient></defs></symbol><symbol xmlns="http://www.w3.org/2000/svg" id="VectorDoor" fill="none" viewBox="0 0 56 90"><path fill="url(#paint0_linear_1_1004)" d="M53.2571 8.10452L22.2738 0.824517C21.3571 0.63785 20.4405 0.824517 19.7071 1.38452C18.9738 1.94452 18.6071 2.87785 18.6071 3.81118V8.01118H3.11545C1.46545 8.01118 0.0904541 9.41118 0.0904541 11.0912V79.1312C0.0904541 80.8112 1.46545 82.2112 3.11545 82.2112H18.5155V86.4112C18.5155 87.3445 18.9738 88.1845 19.6155 88.8379C20.1655 89.3045 20.8071 89.4912 21.4488 89.4912C21.6321 89.4912 21.9071 89.4912 22.0905 89.3979L53.0738 82.1179C54.4488 81.8379 55.3655 80.5312 55.3655 79.1312V11.0912C55.5488 9.59785 54.6321 8.38452 53.2571 8.10452ZM18.5155 76.0512H6.14045V14.0779H18.5155V76.0512ZM29.1488 48.3312C27.4071 48.3312 25.9405 46.8379 25.9405 45.0645C25.9405 43.2912 27.4071 41.7979 29.1488 41.7979C30.8905 41.7979 32.3571 43.2912 32.3571 45.0645C32.3571 46.8379 30.8905 48.3312 29.1488 48.3312Z"/><defs><linearGradient id="paint0_linear_1_1004" x1="27.74" x2="27.74" y1=".755" y2="89.491" gradientUnits="userSpaceOnUse"><stop stop-color="#D36500"/><stop offset="1" stop-color="#F90"/></linearGradient></defs></symbol><symbol xmlns="http://www.w3.org/2000/svg" id="VectorLamp" fill="none" viewBox="0 0 60 94"><path fill="url(#paint0_linear_1_1053)" d="M17.2673 83.6663H42.7326C41.9729 86.4909 40.3147 88.9844 38.0136 90.7621C35.7125 92.5398 32.8964 93.503 29.9999 93.503C27.1034 93.503 24.2874 92.5398 21.9863 90.7621C19.6852 88.9844 18.0269 86.4909 17.2673 83.6663ZM59.3905 75.633L46.493 46.2997V30.333C46.493 29.449 46.1455 28.6011 45.5268 27.976C44.9082 27.3509 44.0692 26.9997 43.1944 26.9997H33.2985V3.66634C33.2985 2.78229 32.951 1.93444 32.3324 1.30932C31.7138 0.684197 30.8748 0.333008 29.9999 0.333008C29.1251 0.333008 28.2861 0.684197 27.6675 1.30932C27.0488 1.93444 26.7013 2.78229 26.7013 3.66634V26.9997H16.8055C15.9306 26.9997 15.0916 27.3509 14.473 27.976C13.8544 28.6011 13.5069 29.449 13.5069 30.333V46.2997L0.609305 75.633C0.383729 76.1401 0.287253 76.6962 0.328662 77.2506C0.370072 77.805 0.548049 78.3401 0.846393 78.8072C1.14474 79.2744 1.55397 79.6587 2.03684 79.9252C2.5197 80.1916 3.06086 80.3319 3.61104 80.333H56.3888C56.939 80.3319 57.4801 80.1916 57.963 79.9252C58.4459 79.6587 58.8551 79.2744 59.1535 78.8072C59.4518 78.3401 59.6298 77.805 59.6712 77.2506C59.7126 76.6962 59.6161 76.1401 59.3905 75.633Z"/><defs><linearGradient id="paint0_linear_1_1053" x1="30" x2="30" y1=".333" y2="93.503" gradientUnits="userSpaceOnUse"><stop stop-color="#FFB800"/><stop offset="1" stop-color="#E3DE67"/></linearGradient></defs></symbol><symbol xmlns="http://www.w3.org/2000/svg" id="VectorPet" fill="none" viewBox="0 0 74 76"><path fill="url(#paint0_linear_1_1087)" d="M70.4281 14.7945C69.3614 13.6976 68.0742 12.8541 66.6569 12.3233C65.2396 11.7925 63.7264 11.5873 62.2238 11.722C62.3734 9.94036 62.084 8.14866 61.3823 6.51252C60.6805 4.87639 59.5891 3.44861 58.2088 2.36117C56.8286 1.27374 55.2042 0.561732 53.4856 0.290975C51.767 0.0202192 50.0098 0.199448 48.3764 0.812096C46.743 1.42474 45.2862 2.45104 44.1404 3.79611C42.9947 5.14119 42.1972 6.76164 41.8215 8.50767C41.4458 10.2537 41.5042 12.069 41.9911 13.7857C42.478 15.5024 43.3778 17.0652 44.6074 18.3295C44.656 18.3795 44.7046 18.4295 44.7556 18.4795L18.3445 45.6418C18.2959 45.5905 18.2473 45.5418 18.1987 45.4905C16.9696 44.2248 15.4501 43.2982 13.7807 42.7966C12.1113 42.2949 10.3458 42.2343 8.64758 42.6204C6.94936 43.0065 5.37319 43.8268 4.06485 45.0054C2.75651 46.1841 1.75823 47.683 1.16233 49.3636C0.566437 51.0443 0.392163 52.8523 0.655628 54.6206C0.919092 56.3888 1.61179 58.0602 2.66966 59.4802C3.72753 60.9001 5.11641 62.0228 6.70788 62.7443C8.29934 63.4659 10.042 63.763 11.7747 63.6083C11.6249 65.3899 11.9142 67.1816 12.6158 68.8177C13.3174 70.4539 14.4086 71.8818 15.7887 72.9694C17.1688 74.0569 18.7932 74.7691 20.5117 75.04C22.2302 75.311 23.9874 75.132 25.6209 74.5195C27.2543 73.9071 28.7113 72.881 29.8571 71.536C31.003 70.1911 31.8007 68.5708 32.1766 66.8249C32.5525 65.0789 32.4944 63.2636 32.0077 61.5469C31.521 59.8301 30.6214 58.2673 29.3921 57.0028C29.3435 56.9515 29.2949 56.9028 29.2463 56.8528L55.655 29.6883C55.7036 29.7395 55.7522 29.7908 55.8008 29.8408C57.7406 31.836 60.3716 32.9569 63.1149 32.9569C64.4733 32.9569 65.8184 32.6817 67.0733 32.1471C68.3283 31.6124 69.4686 30.8287 70.4291 29.8408C71.3896 28.8528 72.1515 27.6799 72.6713 26.3891C73.1912 25.0983 73.4587 23.7148 73.4587 22.3176C73.4587 20.9205 73.1912 19.537 72.6713 18.2461C72.1515 16.9553 71.3896 15.7825 70.4291 14.7945H70.4281Z"/><defs><linearGradient id="paint0_linear_1_1087" x1="36.998" x2="36.998" y1=".168" y2="75.163" gradientUnits="userSpaceOnUse"><stop stop-color="#FFA800"/><stop offset="1" stop-color="#B77900"/></linearGradient></defs></symbol><symbol xmlns="http://www.w3.org/2000/svg" id="VectorPlant" fill="none" viewBox="0 0 67 70"><path fill="url(#paint0_linear_3349_24)" d="M66.2501 3.75018V10.6946C66.2501 24.1182 55.3682 35.0002 41.9445 35.0002H38.4723V38.4724H55.8334V62.778C55.8334 66.6148 52.7258 69.7224 48.889 69.7224H21.1112C17.2744 69.7224 14.1668 66.6148 14.1668 62.778V38.4724H31.5279V28.0557C31.5279 14.6321 42.4098 3.75018 55.8334 3.75018H66.2501ZM12.4307 0.277954C21.2119 0.277954 28.9758 4.6217 33.6945 11.2814C30.1529 15.9377 28.0557 21.7536 28.0557 28.0557V31.528H26.3195C11.9376 31.528 0.277878 19.8682 0.277878 5.48629V0.277954H12.4307Z"/><defs><linearGradient id="paint0_linear_3349_24" x1="33.264" x2="33.264" y1=".278" y2="69.722" gradientUnits="userSpaceOnUse"><stop stop-color="#1CC91D"/><stop offset="1" stop-color="#6CA425"/></linearGradient></defs></symbol><symbol xmlns="http://www.w3.org/2000/svg" id="VectorRadiator" fill="none" viewBox="0 0 74 75"><path fill="url(#paint0_linear_1_1070)" d="M37 33.4803L42.2083 45.7512C42.2083 47.1509 41.6596 48.4933 40.6828 49.4831C39.7061 50.4729 38.3813 51.0289 37 51.0289C35.6186 51.0289 34.2939 50.4729 33.3171 49.4831C32.3404 48.4933 31.7916 47.1509 31.7916 45.7512L37 33.4803ZM70.8541 0.388672H3.14579C2.45512 0.388672 1.79274 0.666697 1.30437 1.16158C0.815993 1.65647 0.541626 2.32768 0.541626 3.02756V10.9442C0.541626 11.6441 0.815993 12.3153 1.30437 12.8102C1.79274 13.3051 2.45512 13.5831 3.14579 13.5831H70.8541C71.5448 13.5831 72.2072 13.3051 72.6955 12.8102C73.1839 12.3153 73.4583 11.6441 73.4583 10.9442V3.02756C73.4583 2.32768 73.1839 1.65647 72.6955 1.16158C72.2072 0.666697 71.5448 0.388672 70.8541 0.388672ZM68.25 55.8053V16.222H37C43.216 16.222 49.1774 18.7242 53.5728 23.1782C57.9682 27.6322 60.4375 33.6731 60.4375 39.972V55.8053H68.25ZM37 21.4998C32.1653 21.4998 27.5286 23.446 24.11 26.9102C20.6914 30.3744 18.7708 35.0729 18.7708 39.972V55.8053H37C34.2373 55.8053 31.5878 54.6932 29.6343 52.7137C27.6808 50.7341 26.5833 48.0493 26.5833 45.2498C26.5872 44.8878 26.6578 44.5298 26.7916 44.1942L34.6041 25.722C34.8042 25.246 35.138 24.8401 35.564 24.5548C35.99 24.2695 36.4893 24.1173 37 24.1173C37.5106 24.1173 38.0099 24.2695 38.4359 24.5548C38.8619 24.8401 39.1957 25.246 39.3958 25.722L47.2083 44.1942C47.3421 44.5298 47.4127 44.8878 47.4166 45.2498C47.4166 48.0493 46.3192 50.7341 44.3657 52.7137C42.4121 54.6932 39.7626 55.8053 37 55.8053H55.2291V39.972C55.2291 35.0729 53.3086 30.3744 49.8899 26.9102C46.4713 23.446 41.8346 21.4998 37 21.4998ZM5.74996 55.8053H13.5625V39.972C13.5625 33.6731 16.0318 27.6322 20.4271 23.1782C24.8225 18.7242 30.7839 16.222 37 16.222H5.74996V55.8053ZM70.8541 58.4442H3.14579C2.45512 58.4442 1.79274 58.7222 1.30437 59.2171C0.815993 59.712 0.541626 60.3832 0.541626 61.0831V71.6387C0.541626 72.3385 0.815993 73.0098 1.30437 73.5046C1.79274 73.9995 2.45512 74.2775 3.14579 74.2775H70.8541C71.5448 74.2775 72.2072 73.9995 72.6955 73.5046C73.1839 73.0098 73.4583 72.3385 73.4583 71.6387V61.0831C73.4583 60.3832 73.1839 59.712 72.6955 59.2171C72.2072 58.7222 71.5448 58.4442 70.8541 58.4442Z"/><defs><linearGradient id="paint0_linear_1_1070" x1="37" x2="37" y1=".389" y2="74.278" gradientUnits="userSpaceOnUse"><stop stop-color="#FF002E"/><stop offset="1" stop-color="#FF3E3E"/></linearGradient></defs></symbol></svg>