<svg width="0" height="0" class="hidden">
  <symbol fill="none" xmlns="http://www.w3.org/2000/svg" viewBox="0 0 18 18" id="Path">
    <path fill-rule="evenodd" clip-rule="evenodd" d="M9.00079 0.466553C6.68326 0.466553 6.39241 0.476686 5.48218 0.518109C4.57372 0.559709 3.95363 0.703533 3.41105 0.914557C2.8498 1.13252 2.3737 1.42407 1.89939 1.89857C1.42471 2.37288 1.13316 2.84898 0.914486 3.41005C0.702929 3.95281 0.558927 4.57308 0.518038 5.48118C0.477326 6.39141 0.46666 6.68244 0.46666 8.99997C0.46666 11.3175 0.476971 11.6075 0.518216 12.5177C0.559994 13.4262 0.703818 14.0462 0.914664 14.5888C1.1328 15.1501 1.42436 15.6262 1.89885 16.1005C2.37299 16.5752 2.84908 16.8674 3.40998 17.0854C3.95292 17.2964 4.57319 17.4402 5.48147 17.4818C6.3917 17.5233 6.68237 17.5334 8.99973 17.5334C11.3174 17.5334 11.6074 17.5233 12.5176 17.4818C13.4261 17.4402 14.0469 17.2964 14.5898 17.0854C15.1509 16.8674 15.6263 16.5752 16.1004 16.1005C16.5751 15.6262 16.8667 15.1501 17.0853 14.589C17.2951 14.0462 17.4391 13.426 17.4818 12.5179C17.5227 11.6076 17.5333 11.3175 17.5333 8.99997C17.5333 6.68244 17.5227 6.39159 17.4818 5.48136C17.4391 4.57291 17.2951 3.95281 17.0853 3.41023C16.8667 2.84898 16.5751 2.37288 16.1004 1.89857C15.6258 1.4239 15.1511 1.13234 14.5893 0.914557C14.0453 0.703533 13.4248 0.559709 12.5164 0.518109C11.6062 0.476686 11.3164 0.466553 8.99813 0.466553H9.00079ZM8.23524 2.00432C8.46244 2.00397 8.71595 2.00432 9.00076 2.00432C11.2792 2.00432 11.5492 2.0125 12.449 2.05339C13.281 2.09143 13.7325 2.23046 14.0333 2.34726C14.4316 2.50193 14.7155 2.68682 15.014 2.98549C15.3126 3.28416 15.4975 3.56861 15.6526 3.96683C15.7694 4.26728 15.9086 4.71884 15.9464 5.55085C15.9873 6.45041 15.9962 6.72064 15.9962 8.998C15.9962 11.2754 15.9873 11.5456 15.9464 12.4451C15.9084 13.2772 15.7694 13.7287 15.6526 14.0292C15.4979 14.4274 15.3126 14.7109 15.014 15.0094C14.7153 15.3081 14.4317 15.493 14.0333 15.6477C13.7329 15.765 13.281 15.9037 12.449 15.9417C11.5494 15.9826 11.2792 15.9915 9.00076 15.9915C6.72215 15.9915 6.45211 15.9826 5.55254 15.9417C4.72053 15.9033 4.26897 15.7643 3.96799 15.6475C3.56977 15.4928 3.28532 15.3079 2.98665 15.0093C2.68798 14.7106 2.50309 14.4269 2.34806 14.0284C2.23126 13.728 2.09206 13.2764 2.0542 12.4444C2.01331 11.5449 2.00513 11.2746 2.00513 8.99586C2.00513 6.71708 2.01331 6.44828 2.0542 5.54872C2.09224 4.71671 2.23126 4.26515 2.34806 3.96434C2.50273 3.56612 2.68798 3.28167 2.98665 2.983C3.28532 2.68433 3.56977 2.49944 3.96799 2.34441C4.2688 2.22708 4.72053 2.08841 5.55254 2.05019C6.33975 2.01463 6.64482 2.00397 8.23524 2.00219V2.00432ZM13.5558 3.42123C12.9905 3.42123 12.5318 3.87937 12.5318 4.44488C12.5318 5.01022 12.9905 5.4689 13.5558 5.4689C14.1212 5.4689 14.5798 5.01022 14.5798 4.44488C14.5798 3.87955 14.1212 3.42123 13.5558 3.42123ZM9.00081 4.61768C6.58069 4.61768 4.61854 6.57984 4.61854 8.99995C4.61854 11.4201 6.58069 13.3813 9.00081 13.3813C11.4209 13.3813 13.3824 11.4201 13.3824 8.99995C13.3824 6.57984 11.4209 4.61768 9.00081 4.61768ZM9.00077 6.15548C10.5716 6.15548 11.8452 7.42891 11.8452 8.99995C11.8452 10.5708 10.5716 11.8444 9.00077 11.8444C7.42974 11.8444 6.1563 10.5708 6.1563 8.99995C6.1563 7.42891 7.42974 6.15548 9.00077 6.15548Z" fill="white"></path>
  </symbol>
  <symbol fill="none" xmlns="http://www.w3.org/2000/svg" viewBox="0 0 18 18" id="3h">
    <path fill-rule="evenodd" clip-rule="evenodd" d="M17.5333 8.98806C17.5333 9.56515 17.4746 10.1414 17.3592 10.7032C17.2467 11.2516 17.08 11.79 16.8616 12.3047C16.6483 12.8103 16.3837 13.2975 16.0745 13.7518C15.77 14.2033 15.4191 14.6269 15.0336 15.013C14.6474 15.3975 14.2224 15.7474 13.7711 16.0532C13.3152 16.3603 12.8273 16.6245 12.3214 16.8388C11.806 17.056 11.2664 17.2224 10.7184 17.3348C10.1559 17.4505 9.57754 17.5095 8.99961 17.5095C8.42125 17.5095 7.84289 17.4505 7.2812 17.3348C6.73243 17.2224 6.19281 17.056 5.67778 16.8388C5.17193 16.6245 4.68355 16.3603 4.2277 16.0532C3.77643 15.7474 3.35141 15.3975 2.96597 15.013C2.58013 14.6269 2.22926 14.2033 1.92425 13.7518C1.61673 13.2975 1.3517 12.8102 1.13754 12.3047C0.919167 11.79 0.752099 11.2516 0.639172 10.7032C0.52501 10.1414 0.46666 9.56515 0.46666 8.98806C0.46666 8.41053 0.524977 7.833 0.639206 7.27249C0.752132 6.72408 0.919201 6.18484 1.13757 5.67099C1.35173 5.16503 1.61677 4.67739 1.92428 4.223C2.2293 3.77115 2.58017 3.34838 2.96601 2.96183C3.35145 2.57734 3.77647 2.22828 4.22774 1.92287C4.68359 1.61453 5.17196 1.35035 5.67781 1.13563C6.19285 0.917974 6.73243 0.751146 7.28123 0.63965C7.84292 0.524819 8.42128 0.466553 8.99964 0.466553C9.57757 0.466553 10.1559 0.524819 10.7185 0.63965C11.2664 0.75118 11.806 0.918007 12.3215 1.13563C12.8273 1.35032 13.3153 1.61453 13.7711 1.92287C14.2224 2.22828 14.6474 2.57734 15.0337 2.96183C15.4191 3.34838 15.77 3.77115 16.0746 4.223C16.3837 4.67739 16.6483 5.16507 16.8616 5.67099C17.08 6.18484 17.2467 6.72408 17.3592 7.27249C17.4746 7.833 17.5333 8.41053 17.5333 8.98806ZM5.89024 2.40593C3.85804 3.36421 2.34129 5.23409 1.86834 7.48763C2.06046 7.4893 5.09729 7.52759 8.59621 6.59926C7.33491 4.36153 5.98734 2.53537 5.89024 2.40593ZM9.19998 7.71983C5.44772 8.84157 1.8471 8.76085 1.71794 8.75588C1.71583 8.83409 1.71209 8.9098 1.71209 8.98805C1.71209 10.8575 2.41838 12.5618 3.57927 13.8505C3.57677 13.8467 5.57107 10.3137 9.50376 9.04381C9.59875 9.01219 9.69544 8.98388 9.79127 8.95643C9.60837 8.54286 9.40873 8.12843 9.19998 7.71983ZM13.8123 3.52647C12.5293 2.39677 10.8447 1.71152 8.99958 1.71152C8.40746 1.71152 7.83284 1.78309 7.28241 1.9154C7.39156 2.06188 8.7604 3.87517 10.0067 6.16029C12.7565 5.13091 13.7944 3.55309 13.8123 3.52647ZM10.288 10.1622C10.2718 10.1676 10.2556 10.1723 10.2397 10.1781C5.93995 11.6748 4.53581 14.6913 4.52062 14.7242C5.7578 15.685 7.30954 16.2646 8.99963 16.2646C10.0088 16.2646 10.9701 16.0594 11.8447 15.6879C11.7368 15.0521 11.3135 12.8235 10.288 10.1622ZM13.0719 15.023C14.7082 13.9204 15.8703 12.1695 16.1945 10.1414C16.0445 10.0931 14.0057 9.44861 11.6534 9.82519C12.6093 12.4482 12.9977 14.5844 13.0719 15.023ZM10.5676 7.24463C10.7368 7.59166 10.9006 7.94486 11.0518 8.29983C11.1056 8.42716 11.1581 8.552 11.2093 8.6768C13.7128 8.36223 16.1791 8.89149 16.2846 8.9131C16.2679 7.18803 15.65 5.60481 14.6274 4.36531C14.6137 4.38482 13.4449 6.07124 10.5676 7.24463Z" fill="white"></path>
  </symbol>
  <symbol fill="none" xmlns="http://www.w3.org/2000/svg" viewBox="0 0 16 14" id="Tw">
    <path fill-rule="evenodd" clip-rule="evenodd" d="M7.5208 4.0051L7.55438 4.55873L6.99479 4.49094C4.95791 4.23107 3.17843 3.34977 1.66756 1.86964L0.928908 1.13523L0.73865 1.67757C0.33575 2.88653 0.593158 4.16328 1.43253 5.02198C1.8802 5.49653 1.77948 5.56432 1.00725 5.28185C0.73865 5.19146 0.503625 5.12367 0.481242 5.15757C0.4029 5.23666 0.6715 6.26484 0.884142 6.67159C1.17513 7.23653 1.76828 7.79016 2.4174 8.11782L2.96579 8.37769L2.31668 8.38899C1.68994 8.38899 1.66756 8.40029 1.73471 8.63756C1.95854 9.37198 2.84268 10.1516 3.82755 10.4906L4.52143 10.7278L3.91708 11.0894C3.02175 11.6091 1.96973 11.9029 0.917717 11.9255C0.414092 11.9368 0 11.982 0 12.0159C0 12.1289 1.36538 12.7616 2.15999 13.0102C4.54382 13.7446 7.37531 13.4282 9.50173 12.1741C11.0126 11.2815 12.5235 9.50756 13.2286 7.79016C13.6091 6.87497 13.9896 5.20276 13.9896 4.40055C13.9896 3.88081 14.0232 3.81302 14.6499 3.19159C15.0192 2.83003 15.3662 2.43458 15.4333 2.32159C15.5452 2.10692 15.534 2.10692 14.9633 2.299C14.012 2.63796 13.8777 2.59276 14.3477 2.08432C14.6947 1.72276 15.1088 1.06744 15.1088 0.875359C15.1088 0.841463 14.9409 0.897957 14.7506 0.999645C14.5492 1.11263 14.1015 1.28211 13.7658 1.3838L13.1614 1.57588L12.613 1.20302C12.3108 0.999645 11.8856 0.773671 11.6617 0.705879C11.0909 0.547697 10.218 0.570295 9.70318 0.751074C8.30422 1.25952 7.42008 2.57016 7.5208 4.0051Z" fill="white"></path>
  </symbol>
  <symbol fill="none" xmlns="http://www.w3.org/2000/svg" viewBox="0 0 18 13" id="Yt">
    <path fill-rule="evenodd" clip-rule="evenodd" d="M15.6677 0.49952C16.4021 0.70103 16.9804 1.29478 17.1767 2.04878C17.5333 3.41533 17.5333 6.26663 17.5333 6.26663C17.5333 6.26663 17.5333 9.11784 17.1767 10.4845C16.9804 11.2385 16.4021 11.8322 15.6677 12.0338C14.3369 12.4 9.00001 12.4 9.00001 12.4C9.00001 12.4 3.66309 12.4 2.33218 12.0338C1.59783 11.8322 1.0195 11.2385 0.823232 10.4845C0.466675 9.11784 0.466675 6.26663 0.466675 6.26663C0.466675 6.26663 0.466675 3.41533 0.823232 2.04878C1.0195 1.29478 1.59783 0.70103 2.33218 0.49952C3.66309 0.133301 9.00001 0.133301 9.00001 0.133301C9.00001 0.133301 14.3369 0.133301 15.6677 0.49952ZM7.40002 3.86658V9.19991L11.6667 6.53335L7.40002 3.86658Z" fill="white"></path>
  </symbol>
</svg>