<svg width="64" height="99" viewBox="0 0 64 99" fill="none" xmlns="http://www.w3.org/2000/svg">
<g filter="url(#filter0_d_1_1017)">
<path fill-rule="evenodd" clip-rule="evenodd" d="M21.8351 3.71647C21.6674 2.005 20.1895 0.666504 18.3911 0.666504C16.4803 0.666504 14.9313 2.17754 14.9313 4.0415V13.1464C14.9313 16.1261 12.5158 18.5416 9.53607 18.5416V18.5416L9.21156 18.5569C7.50285 18.7187 6.1665 20.1452 6.1665 21.8809V48.5952L6.17627 49.1692C6.48156 58.1246 13.9034 65.2916 23.0143 65.2916H23.2704C26.308 65.2916 28.7705 67.7541 28.7705 70.7917V70.7917L28.7819 71.3285C29.0611 77.914 34.4542 83.1667 41.0662 83.1667H54.4796L54.8026 83.1512C56.5031 82.9877 57.833 81.546 57.833 79.7917C57.833 77.9277 56.3317 76.4167 54.4796 76.4167H41.0662L40.6835 76.4037C37.7753 76.2058 35.4772 73.7688 35.4772 70.7917V70.7917C35.4772 67.7541 37.9477 65.2916 40.9853 65.2916V65.2916L41.5645 65.282C50.6012 64.9794 57.8332 57.6243 57.8332 48.5952V21.8809L57.8177 21.5593C57.6545 19.866 56.2151 18.5416 54.4636 18.5416V18.5416C51.4839 18.5416 49.0684 16.1261 49.0684 13.1465V4.0415L49.0526 3.71647C48.885 2.005 47.407 0.666504 45.6086 0.666504C43.6978 0.666504 42.1488 2.17754 42.1488 4.0415V8.39268C42.1488 13.9978 37.605 18.5416 31.9999 18.5416V18.5416C26.3948 18.5416 21.8509 13.9978 21.8509 8.39268V4.0415L21.8351 3.71647Z" fill="url(#paint0_linear_1_1017)"/>
</g>
<defs>
<filter id="filter0_d_1_1017" x="0.166504" y="0.666504" width="63.6667" height="97.5002" filterUnits="userSpaceOnUse" color-interpolation-filters="sRGB">
<feFlood flood-opacity="0" result="BackgroundImageFix"/>
<feColorMatrix in="SourceAlpha" type="matrix" values="0 0 0 0 0 0 0 0 0 0 0 0 0 0 0 0 0 0 127 0" result="hardAlpha"/>
<feOffset dy="9"/>
<feGaussianBlur stdDeviation="3"/>
<feColorMatrix type="matrix" values="0 0 0 0 0 0 0 0 0 0 0 0 0 0 0 0 0 0 0.0693564 0"/>
<feBlend mode="normal" in2="BackgroundImageFix" result="effect1_dropShadow_1_1017"/>
<feBlend mode="normal" in="SourceGraphic" in2="effect1_dropShadow_1_1017" result="shape"/>
</filter>
<linearGradient id="paint0_linear_1_1017" x1="6.1665" y1="0.666504" x2="6.1665" y2="83.1666" gradientUnits="userSpaceOnUse">
<stop stop-color="#53B9D9"/>
<stop offset="0.999863" stop-color="#8DD4EA"/>
</linearGradient>
</defs>
</svg>
