<svg width="74" height="76" viewBox="0 0 74 76" fill="none" xmlns="http://www.w3.org/2000/svg">
<path d="M70.4281 14.7945C69.3614 13.6976 68.0742 12.8541 66.6569 12.3233C65.2396 11.7925 63.7264 11.5873 62.2238 11.722C62.3734 9.94036 62.084 8.14866 61.3823 6.51252C60.6805 4.87639 59.5891 3.44861 58.2088 2.36117C56.8286 1.27374 55.2042 0.561732 53.4856 0.290975C51.767 0.0202192 50.0098 0.199448 48.3764 0.812096C46.743 1.42474 45.2862 2.45104 44.1404 3.79611C42.9947 5.14119 42.1972 6.76164 41.8215 8.50767C41.4458 10.2537 41.5042 12.069 41.9911 13.7857C42.478 15.5024 43.3778 17.0652 44.6074 18.3295C44.656 18.3795 44.7046 18.4295 44.7556 18.4795L18.3445 45.6418C18.2959 45.5905 18.2473 45.5418 18.1987 45.4905C16.9696 44.2248 15.4501 43.2982 13.7807 42.7966C12.1113 42.2949 10.3458 42.2343 8.64758 42.6204C6.94936 43.0065 5.37319 43.8268 4.06485 45.0054C2.75651 46.1841 1.75823 47.683 1.16233 49.3636C0.566437 51.0443 0.392163 52.8523 0.655628 54.6206C0.919092 56.3888 1.61179 58.0602 2.66966 59.4802C3.72753 60.9001 5.11641 62.0228 6.70788 62.7443C8.29934 63.4659 10.042 63.763 11.7747 63.6083C11.6249 65.3899 11.9142 67.1816 12.6158 68.8177C13.3174 70.4539 14.4086 71.8818 15.7887 72.9694C17.1688 74.0569 18.7932 74.7691 20.5117 75.04C22.2302 75.311 23.9874 75.132 25.6209 74.5195C27.2543 73.9071 28.7113 72.881 29.8571 71.536C31.003 70.1911 31.8007 68.5708 32.1766 66.8249C32.5525 65.0789 32.4944 63.2636 32.0077 61.5469C31.521 59.8301 30.6214 58.2673 29.3921 57.0028C29.3435 56.9515 29.2949 56.9028 29.2463 56.8528L55.655 29.6883C55.7036 29.7395 55.7522 29.7908 55.8008 29.8408C57.7406 31.836 60.3716 32.9569 63.1149 32.9569C64.4733 32.9569 65.8184 32.6817 67.0733 32.1471C68.3283 31.6124 69.4686 30.8287 70.4291 29.8408C71.3896 28.8528 72.1515 27.6799 72.6713 26.3891C73.1912 25.0983 73.4587 23.7148 73.4587 22.3176C73.4587 20.9205 73.1912 19.537 72.6713 18.2461C72.1515 16.9553 71.3896 15.7825 70.4291 14.7945H70.4281Z" fill="url(#paint0_linear_1_1087)"/>
<defs>
<linearGradient id="paint0_linear_1_1087" x1="36.9975" y1="0.168335" x2="36.9975" y2="75.1628" gradientUnits="userSpaceOnUse">
<stop stop-color="#FFA800"/>
<stop offset="1" stop-color="#B77900"/>
</linearGradient>
</defs>
</svg>
