<svg width="56" height="90" viewBox="0 0 56 90" fill="none" xmlns="http://www.w3.org/2000/svg">
<path d="M53.2571 8.10452L22.2738 0.824517C21.3571 0.63785 20.4405 0.824517 19.7071 1.38452C18.9738 1.94452 18.6071 2.87785 18.6071 3.81118V8.01118H3.11545C1.46545 8.01118 0.0904541 9.41118 0.0904541 11.0912V79.1312C0.0904541 80.8112 1.46545 82.2112 3.11545 82.2112H18.5155V86.4112C18.5155 87.3445 18.9738 88.1845 19.6155 88.8379C20.1655 89.3045 20.8071 89.4912 21.4488 89.4912C21.6321 89.4912 21.9071 89.4912 22.0905 89.3979L53.0738 82.1179C54.4488 81.8379 55.3655 80.5312 55.3655 79.1312V11.0912C55.5488 9.59785 54.6321 8.38452 53.2571 8.10452ZM18.5155 76.0512H6.14045V14.0779H18.5155V76.0512ZM29.1488 48.3312C27.4071 48.3312 25.9405 46.8379 25.9405 45.0645C25.9405 43.2912 27.4071 41.7979 29.1488 41.7979C30.8905 41.7979 32.3571 43.2912 32.3571 45.0645C32.3571 46.8379 30.8905 48.3312 29.1488 48.3312Z" fill="url(#paint0_linear_1_1004)"/>
<defs>
<linearGradient id="paint0_linear_1_1004" x1="27.7396" y1="0.754517" x2="27.7396" y2="89.4912" gradientUnits="userSpaceOnUse">
<stop stop-color="#D36500"/>
<stop offset="1" stop-color="#FF9900"/>
</linearGradient>
</defs>
</svg>
