<svg width="67" height="70" viewBox="0 0 67 70" fill="none" xmlns="http://www.w3.org/2000/svg">
<path d="M66.2501 3.75018V10.6946C66.2501 24.1182 55.3682 35.0002 41.9445 35.0002H38.4723V38.4724H55.8334V62.778C55.8334 66.6148 52.7258 69.7224 48.889 69.7224H21.1112C17.2744 69.7224 14.1668 66.6148 14.1668 62.778V38.4724H31.5279V28.0557C31.5279 14.6321 42.4098 3.75018 55.8334 3.75018H66.2501ZM12.4307 0.277954C21.2119 0.277954 28.9758 4.6217 33.6945 11.2814C30.1529 15.9377 28.0557 21.7536 28.0557 28.0557V31.528H26.3195C11.9376 31.528 0.277878 19.8682 0.277878 5.48629V0.277954H12.4307Z" fill="url(#paint0_linear_3349_24)"/>
<defs>
<linearGradient id="paint0_linear_3349_24" x1="33.264" y1="0.277954" x2="33.264" y2="69.7224" gradientUnits="userSpaceOnUse">
<stop stop-color="#1CC91D"/>
<stop offset="1" stop-color="#6CA425"/>
</linearGradient>
</defs>
</svg>
