<svg width="60" height="94" viewBox="0 0 60 94" fill="none" xmlns="http://www.w3.org/2000/svg">
<path d="M17.2673 83.6663H42.7326C41.9729 86.4909 40.3147 88.9844 38.0136 90.7621C35.7125 92.5398 32.8964 93.503 29.9999 93.503C27.1034 93.503 24.2874 92.5398 21.9863 90.7621C19.6852 88.9844 18.0269 86.4909 17.2673 83.6663ZM59.3905 75.633L46.493 46.2997V30.333C46.493 29.449 46.1455 28.6011 45.5268 27.976C44.9082 27.3509 44.0692 26.9997 43.1944 26.9997H33.2985V3.66634C33.2985 2.78229 32.951 1.93444 32.3324 1.30932C31.7138 0.684197 30.8748 0.333008 29.9999 0.333008C29.1251 0.333008 28.2861 0.684197 27.6675 1.30932C27.0488 1.93444 26.7013 2.78229 26.7013 3.66634V26.9997H16.8055C15.9306 26.9997 15.0916 27.3509 14.473 27.976C13.8544 28.6011 13.5069 29.449 13.5069 30.333V46.2997L0.609305 75.633C0.383729 76.1401 0.287253 76.6962 0.328662 77.2506C0.370072 77.805 0.548049 78.3401 0.846393 78.8072C1.14474 79.2744 1.55397 79.6587 2.03684 79.9252C2.5197 80.1916 3.06086 80.3319 3.61104 80.333H56.3888C56.939 80.3319 57.4801 80.1916 57.963 79.9252C58.4459 79.6587 58.8551 79.2744 59.1535 78.8072C59.4518 78.3401 59.6298 77.805 59.6712 77.2506C59.7126 76.6962 59.6161 76.1401 59.3905 75.633Z" fill="url(#paint0_linear_1_1053)"/>
<defs>
<linearGradient id="paint0_linear_1_1053" x1="29.9999" y1="0.333008" x2="29.9999" y2="93.503" gradientUnits="userSpaceOnUse">
<stop stop-color="#FFB800"/>
<stop offset="1" stop-color="#E3DE67"/>
</linearGradient>
</defs>
</svg>
